# xmcd
#
# Track frame offsets:
#	150
#	15142
#	28994
#	45012
#	60569
#	74464
#	89774
#	103589
#	124664
#	143789
#	156689
#	172757
#	184052
#	200430
#	210925
#	224885
#
# Disc length: 3288 seconds
#
# Revision: 0
# Processed by: cddbd v1.5.2PL0 Copyright (c) Steve Scherf et al.
# Submitted via: EZCDAudioConverter 2.1.1.1
#
DISCID=e20cd610
DTITLE=Giwrgos Katsaros - To Xyso Saxofono Cd 2
DYEAR=2015
DGENRE=Instrumental
TTITLE0=Ti Einai Ayto Poy To Lene Agaph
TTITLE1=Enas Filos Hrthe Apopse Ap Ta Palia
TTITLE2=Tha Se Parw Na Fygoyme
TTITLE3=Xara Moy
TTITLE4=Ax! Psaropoyla
TTITLE5=Dyo Prasina Matia
TTITLE6=Glyka Moy Matia Agaphmena
TTITLE7=Gelas
TTITLE8=En Aranjuez Con Mi Amor (Aranjuez Mon Amour)
TTITLE9=Une Belle Histoire
TTITLE10=Ballade Pour Adeline (Adieu Adeline)
TTITLE11=The Godfather Waltz
TTITLE12=Woman In Love
TTITLE13=The Love Boat
TTITLE14=Emmanouela (Theme)
TTITLE15=Puerto Rico
EXTD=
EXTT0=
EXTT1=
EXTT2=
EXTT3=
EXTT4=
EXTT5=
EXTT6=
EXTT7=
EXTT8=
EXTT9=
EXTT10=
EXTT11=
EXTT12=
EXTT13=
EXTT14=
EXTT15=
PLAYORDER=
